<svg width="24" height="24" viewBox="0 0 24 24" fill="none" xmlns="http://www.w3.org/2000/svg">
<path d="M5.37276 24.0004H0.396871V7.97637H5.37276V24.0004ZM2.88182 5.79058C1.2909 5.79058 0 4.47224 0 2.88133C0 2.11702 0.303619 1.38402 0.844065 0.843576C1.38451 0.303131 2.11751 -0.000488281 2.88182 -0.000488281C3.64612 -0.000488281 4.37912 0.303131 4.91957 0.843576C5.46001 1.38402 5.76363 2.11702 5.76363 2.88133C5.76363 4.47224 4.47273 5.79058 2.88182 5.79058ZM23.9957 24.0004H19.031V16.2001C19.031 14.3409 18.9932 11.9571 16.444 11.9571C13.8571 11.9571 13.4602 13.9766 13.4602 16.0664V24.0004H8.48945V7.97637H13.2613V10.1622H13.3308C13.9951 8.90297 15.6177 7.57435 18.0384 7.57435C23.0743 7.57435 24 10.8908 24 15.1981V24.0004H23.9957Z" fill="#F1EFE3"/>
</svg>
