<svg width="24" height="25" viewBox="0 0 24 25" fill="none" xmlns="http://www.w3.org/2000/svg">
<path d="M5.37276 24.9794H0.396871V8.95537H5.37276V24.9794ZM2.88182 6.76958C1.2909 6.76958 0 5.45125 0 3.86033C0 3.09603 0.303619 2.36303 0.844065 1.82258C1.38451 1.28213 2.11751 0.978516 2.88182 0.978516C3.64612 0.978516 4.37912 1.28213 4.91957 1.82258C5.46001 2.36303 5.76363 3.09603 5.76363 3.86033C5.76363 5.45125 4.47273 6.76958 2.88182 6.76958ZM23.9957 24.9794H19.031V17.1791C19.031 15.3199 18.9932 12.9361 16.444 12.9361C13.8571 12.9361 13.4602 14.9556 13.4602 17.0454V24.9794H8.48945V8.95537H13.2613V11.1412H13.3308C13.9951 9.88198 15.6177 8.55336 18.0384 8.55336C23.0743 8.55336 24 11.8698 24 16.1771V24.9794H23.9957Z" fill="black"/>
</svg>
