<svg width="24" height="25" viewBox="0 0 24 25" fill="none" xmlns="http://www.w3.org/2000/svg">
<path d="M12 0.226318C5.37 0.226318 0 5.73215 0 12.5298C0 17.9742 3.435 22.5726 8.205 24.2028C8.805 24.3105 9.03 23.9414 9.03 23.6184C9.03 23.3262 9.015 22.3573 9.015 21.3269C6 21.8959 5.22 20.5733 4.98 19.8812C4.845 19.5275 4.26 18.4355 3.75 18.1433C3.33 17.9126 2.73 17.3436 3.735 17.3282C4.68 17.3128 5.355 18.2202 5.58 18.5893C6.66 20.4502 8.385 19.9273 9.075 19.6044C9.18 18.8046 9.495 18.2664 9.84 17.9588C7.17 17.6512 4.38 16.59 4.38 11.8839C4.38 10.5459 4.845 9.43858 5.61 8.57734C5.49 8.26975 5.07 7.00864 5.73 5.3169C5.73 5.3169 6.735 4.99394 9.03 6.57801C9.99 6.30118 11.01 6.16277 12.03 6.16277C13.05 6.16277 14.07 6.30118 15.03 6.57801C17.325 4.97856 18.33 5.3169 18.33 5.3169C18.99 7.00864 18.57 8.26975 18.45 8.57734C19.215 9.43858 19.68 10.5305 19.68 11.8839C19.68 16.6054 16.875 17.6512 14.205 17.9588C14.64 18.3433 15.015 19.0815 15.015 20.2349C15.015 21.8805 15 23.2032 15 23.6184C15 23.9414 15.225 24.3258 15.825 24.2028C18.2073 23.3785 20.2775 21.8088 21.744 19.7147C23.2106 17.6207 23.9996 15.1078 24 12.5298C24 5.73215 18.63 0.226318 12 0.226318Z" fill="#F1EFE3"/>
</svg>
