<svg width="24" height="24" viewBox="0 0 24 24" fill="none" xmlns="http://www.w3.org/2000/svg">
<path d="M6.4699 1.34718C4.8045 2.21262 3.36505 3.45624 2.26697 4.97833C1.16889 6.50041 0.442728 8.25862 0.146712 10.112H0.842711C5.33071 10.008 8.8491 9.61917 11.7227 8.73917C10.4747 6.52638 8.9515 4.35518 7.1243 2.14718L7.1227 2.14558L6.4699 1.34718ZM0.00271172 11.712L-0.000488281 12C-0.000488281 15.2272 1.27311 18.1568 3.34511 20.3136L3.60271 19.7952C3.61702 19.7665 3.63305 19.7387 3.65071 19.712C6.3035 15.6768 9.3051 13.2768 12.6619 12.2C12.8891 12.1264 13.1195 12.0592 13.3499 11.9984C13.0811 11.3822 12.7946 10.774 12.4907 10.1744C9.3467 11.1872 5.56751 11.6032 0.869911 11.7104H0.00431171L0.00271172 11.712Z" fill="#F1EFE3"/>
<path d="M4.5755 21.4288C6.6896 23.0982 9.30575 24.0043 11.9995 24C13.4283 24 14.7995 23.7504 16.0683 23.2928V22.1408C15.6779 19.0448 14.9915 16.2048 13.9595 13.4944C13.6875 13.5616 13.4171 13.6384 13.1499 13.7232C10.2347 14.6592 7.5099 16.768 5.0139 20.552L4.57711 21.4288H4.5755ZM17.6683 22.5792C19.215 21.7493 20.5611 20.5906 21.612 19.1848C22.663 17.7789 23.3932 16.1599 23.7515 14.4416L22.8475 14.0336C20.2459 13.2688 17.8219 12.9552 15.5627 13.2096C16.5835 15.9616 17.2699 18.8512 17.6619 21.9904C17.6667 22.0224 17.6683 22.0544 17.6683 22.0896V22.5792ZM23.9739 12.7872C24.1851 9.6443 23.1472 6.54506 21.0859 4.16321L20.6107 4.68961C18.7387 6.9664 16.6011 8.5456 14.0027 9.6208C14.3419 10.2992 14.6587 10.9824 14.9515 11.6752C17.6267 11.2912 20.4395 11.6528 23.3531 12.5152C23.3886 12.5256 23.4234 12.5384 23.4571 12.5536L23.9739 12.7872ZM19.9611 3.02081C17.7679 1.07083 14.9342 -0.00436256 11.9995 1.33044e-05C10.5947 1.33044e-05 9.2475 0.240013 7.9947 0.684812L8.3595 1.12961C10.3115 3.48641 11.9307 5.81601 13.2523 8.1984C15.7211 7.2016 17.6779 5.74401 19.3867 3.65921C19.3945 3.64941 19.4025 3.63981 19.4107 3.63041L19.9611 3.02241V3.02081Z" fill="#F1EFE3"/>
</svg>
