<svg width="24" height="25" viewBox="0 0 24 25" fill="none" xmlns="http://www.w3.org/2000/svg">
<path d="M12 0.979004C5.37 0.979004 0 6.48483 0 13.2825C0 18.7268 3.435 23.3253 8.205 24.9555C8.805 25.0632 9.03 24.694 9.03 24.3711C9.03 24.0789 9.015 23.11 9.015 22.0796C6 22.6486 5.22 21.326 4.98 20.6339C4.845 20.2802 4.26 19.1882 3.75 18.896C3.33 18.6653 2.73 18.0963 3.735 18.0809C4.68 18.0655 5.355 18.9729 5.58 19.342C6.66 21.2029 8.385 20.68 9.075 20.3571C9.18 19.5573 9.495 19.019 9.84 18.7115C7.17 18.4039 4.38 17.3427 4.38 12.6366C4.38 11.2986 4.845 10.1913 5.61 9.33002C5.49 9.02243 5.07 7.76132 5.73 6.06959C5.73 6.06959 6.735 5.74662 9.03 7.3307C9.99 7.05387 11.01 6.91545 12.03 6.91545C13.05 6.91545 14.07 7.05387 15.03 7.3307C17.325 5.73124 18.33 6.06959 18.33 6.06959C18.99 7.76132 18.57 9.02243 18.45 9.33002C19.215 10.1913 19.68 11.2832 19.68 12.6366C19.68 17.3581 16.875 18.4039 14.205 18.7115C14.64 19.0959 15.015 19.8342 15.015 20.9876C15.015 22.6332 15 23.9558 15 24.3711C15 24.694 15.225 25.0785 15.825 24.9555C18.2073 24.1311 20.2775 22.5615 21.744 20.4674C23.2106 18.3734 23.9996 15.8605 24 13.2825C24 6.48483 18.63 0.979004 12 0.979004Z" fill="black"/>
</svg>
