<svg width="24" height="25" viewBox="0 0 24 25" fill="none" xmlns="http://www.w3.org/2000/svg">
<path d="M6.4699 2.32619C4.8045 3.19162 3.36505 4.43524 2.26697 5.95733C1.16889 7.47942 0.442728 9.23763 0.146712 11.091H0.842711C5.33071 10.987 8.8491 10.5982 11.7227 9.71818C10.4747 7.50538 8.9515 5.33418 7.1243 3.12619L7.1227 3.12459L6.4699 2.32619ZM0.00271172 12.691L-0.000488281 12.979C-0.000488281 16.2062 1.27311 19.1358 3.34511 21.2926L3.60271 20.7742C3.61702 20.7455 3.63305 20.7177 3.65071 20.691C6.3035 16.6558 9.3051 14.2558 12.6619 13.179C12.8891 13.1054 13.1195 13.0382 13.3499 12.9774C13.0811 12.3612 12.7946 11.753 12.4907 11.1534C9.3467 12.1662 5.56751 12.5822 0.869911 12.6894H0.00431171L0.00271172 12.691Z" fill="black"/>
<path d="M4.5755 22.4078C6.6896 24.0772 9.30575 24.9833 11.9995 24.979C13.4283 24.979 14.7995 24.7294 16.0683 24.2718V23.1198C15.6779 20.0238 14.9915 17.1838 13.9595 14.4734C13.6875 14.5406 13.4171 14.6174 13.1499 14.7022C10.2347 15.6382 7.5099 17.747 5.0139 21.531L4.57711 22.4078H4.5755ZM17.6683 23.5582C19.215 22.7283 20.5611 21.5696 21.612 20.1638C22.663 18.7579 23.3932 17.1389 23.7515 15.4206L22.8475 15.0126C20.2459 14.2478 17.8219 13.9342 15.5627 14.1886C16.5835 16.9406 17.2699 19.8302 17.6619 22.9694C17.6667 23.0014 17.6683 23.0334 17.6683 23.0686V23.5582ZM23.9739 13.7662C24.1851 10.6233 23.1472 7.52407 21.0859 5.14221L20.6107 5.66861C18.7387 7.94541 16.6011 9.52461 14.0027 10.5998C14.3419 11.2782 14.6587 11.9614 14.9515 12.6542C17.6267 12.2702 20.4395 12.6318 23.3531 13.4942C23.3886 13.5046 23.4234 13.5174 23.4571 13.5326L23.9739 13.7662ZM19.9611 3.99981C17.7679 2.04983 14.9342 0.974641 11.9995 0.979017C10.5947 0.979017 9.2475 1.21902 7.9947 1.66382L8.3595 2.10862C10.3115 4.46541 11.9307 6.79501 13.2523 9.17741C15.7211 8.18061 17.6779 6.72301 19.3867 4.63821C19.3945 4.62842 19.4025 4.61882 19.4107 4.60941L19.9611 4.00141V3.99981Z" fill="black"/>
</svg>
