<svg width="237" height="238" viewBox="0 0 237 238" fill="none" xmlns="http://www.w3.org/2000/svg">
<path d="M98.1845 215.201C98.4931 214.03 99.0427 213.059 99.8332 212.288C100.622 211.533 101.616 210.997 102.817 210.68C104 210.378 105.346 210.321 106.854 210.511C108.156 210.675 109.332 211 110.384 211.487C111.419 211.972 112.3 212.599 113.026 213.368C113.733 214.151 114.248 215.062 114.568 216.102C114.871 217.156 114.941 218.326 114.78 219.612C114.616 220.914 114.258 222.03 113.705 222.96C113.137 223.888 112.413 224.644 111.533 225.226C110.636 225.823 109.625 226.228 108.502 226.441C107.362 226.653 106.142 226.677 104.84 226.513C103.316 226.321 102.019 225.924 100.95 225.322C99.8653 224.717 99.0354 223.944 98.4607 223.001C97.886 222.057 97.6031 220.974 97.6121 219.749L100.231 220.079C100.364 220.821 100.637 221.468 101.051 222.02C101.464 222.588 102.018 223.053 102.714 223.415C103.395 223.775 104.203 224.014 105.14 224.131C106.314 224.279 107.398 224.19 108.391 223.863C109.381 223.553 110.199 223.011 110.845 222.237C111.473 221.478 111.864 220.487 112.017 219.264C112.169 218.058 112.036 217.001 111.618 216.094C111.182 215.2 110.523 214.48 109.64 213.934C108.758 213.387 107.729 213.04 106.554 212.892C105.618 212.774 104.776 212.797 104.03 212.961C103.282 213.141 102.638 213.447 102.1 213.88C101.56 214.328 101.136 214.879 100.828 215.534L98.1845 215.201Z" fill="#F1EFE3"/>
<path d="M85.4561 205.125C86.6947 205.604 87.7199 206.258 88.5316 207.086C89.3433 207.915 89.8654 208.872 90.0976 209.957C90.3299 211.041 90.2066 212.203 89.7275 213.442C89.2542 214.665 88.5666 215.6 87.6648 216.247C86.7572 216.908 85.7215 217.279 84.5577 217.361C83.3939 217.442 82.1927 217.244 80.9541 216.765C79.7155 216.286 78.7007 215.627 77.9096 214.789C77.1186 213.952 76.6173 212.986 76.4057 211.892C76.1734 210.807 76.2939 209.653 76.7672 208.429C77.2462 207.19 77.9367 206.248 78.8385 205.602C79.7254 204.95 80.7404 204.588 81.8836 204.515C83.0267 204.443 84.2175 204.646 85.4561 205.125ZM84.6683 207.162C83.952 206.885 83.2405 206.773 82.534 206.825C81.8274 206.878 81.1928 207.121 80.6303 207.556C80.0528 207.984 79.6082 208.601 79.2966 209.407C78.9849 210.213 78.8984 210.969 79.0373 211.674C79.1611 212.374 79.4638 212.989 79.9453 213.518C80.4061 214.057 81.0021 214.467 81.7333 214.75C82.4645 215.033 83.1863 215.14 83.8986 215.073C84.6109 215.005 85.2633 214.76 85.8557 214.337C86.4332 213.909 86.8807 213.284 87.1981 212.463C87.5098 211.658 87.5962 210.902 87.4574 210.196C87.3186 209.491 87.0056 208.881 86.5183 208.366C86.0162 207.846 85.3995 207.445 84.6683 207.162Z" fill="#F1EFE3"/>
<path d="M65.7077 209.359L63.4966 207.873L70.1633 197.953L72.3744 199.439L65.7077 209.359ZM59.1663 205.281C58.5952 204.897 58.1242 204.465 57.7532 203.984C57.369 203.494 57.1158 202.968 56.9936 202.404C56.8493 201.844 56.8448 201.263 56.9801 200.659C57.1022 200.048 57.3819 199.416 57.8192 198.766L62.036 192.491L64.2471 193.977L60.3248 199.813C59.7804 200.623 59.578 201.355 59.7176 202.008C59.8349 202.665 60.312 203.275 61.1486 203.837C61.786 204.265 62.464 204.518 63.1826 204.597C63.879 204.679 64.5405 204.613 65.167 204.398C65.7846 204.196 66.294 203.854 66.6951 203.371L65.9922 204.46C65.5956 204.907 65.1371 205.274 64.6168 205.56C64.0877 205.86 63.5211 206.058 62.9173 206.153C62.3045 206.262 61.6788 206.246 61.0403 206.106C60.4018 205.966 59.7771 205.691 59.1663 205.281Z" fill="#F1EFE3"/>
<path d="M47.9845 196.155L41.9939 190.199L43.5339 188.65L49.5245 194.606L47.9845 196.155ZM43.6747 196.405L41.7686 194.51L52.4635 183.754L54.3696 185.649L43.6747 196.405Z" fill="#F1EFE3"/>
<path d="M42.9376 171.862C43.5496 172.761 43.8939 173.737 43.9703 174.788C44.0377 175.826 43.8408 176.83 43.3795 177.802C42.896 178.77 42.1516 179.595 41.1462 180.279C40.1143 180.981 39.0618 181.369 37.9885 181.441C36.902 181.522 35.8795 181.327 34.9209 180.857C33.9624 180.387 33.1591 179.676 32.5111 178.723C31.7912 177.665 31.4512 176.667 31.4912 175.73C31.5312 174.794 31.8515 173.928 32.452 173.132C33.0525 172.336 33.8356 171.61 34.8013 170.953C35.3437 170.584 35.9731 170.272 36.6896 170.017C37.3929 169.771 38.1195 169.644 38.8695 169.637C39.6104 169.617 40.3397 169.778 41.0574 170.122C41.7529 170.462 42.3797 171.042 42.9376 171.862ZM40.6531 172.429C40.1491 171.688 39.5827 171.155 38.9539 170.828C38.3028 170.496 37.636 170.37 36.9533 170.447C36.2616 170.511 35.5983 170.759 34.9633 171.191C34.2621 171.668 33.7613 172.212 33.4609 172.823C33.1472 173.443 33.0335 174.101 33.12 174.797C33.1931 175.501 33.4817 176.224 33.9857 176.965C34.7057 178.023 35.5746 178.632 36.5923 178.791C37.6101 178.95 38.615 178.692 39.6072 178.017C40.2554 177.576 40.7364 177.046 41.0501 176.426C41.3548 175.793 41.475 175.131 41.4108 174.439C41.3467 173.747 41.0941 173.077 40.6531 172.429ZM30.0025 174.566L28.4905 172.344L38.3724 165.621L39.7764 167.685C39.7764 167.685 39.6597 167.783 39.4264 167.981C39.193 168.178 38.9068 168.412 38.5676 168.681C38.2152 168.96 37.8736 169.211 37.5429 169.436L30.0025 174.566Z" fill="#F1EFE3"/>
<path d="M25.8042 148.62C26.7923 148.335 27.7313 148.318 28.6212 148.57C29.5111 148.821 30.3075 149.316 31.0104 150.054C31.7074 150.777 32.2785 151.705 32.7236 152.836C33.2038 154.057 33.4168 155.254 33.3625 156.428C33.3023 157.586 32.9547 158.625 32.3195 159.546C31.6843 160.466 30.7488 161.169 29.5129 161.655C28.2771 162.142 27.1132 162.264 26.0212 162.023C24.9292 161.782 23.9591 161.261 23.111 160.46C22.257 159.644 21.5899 158.625 21.1097 157.404C20.6646 156.273 20.4583 155.202 20.4909 154.192C20.5085 153.188 20.7499 152.293 21.2149 151.509C21.68 150.724 22.3714 150.1 23.2892 149.635L24.1853 151.914C23.4957 152.477 23.0668 153.179 22.8985 154.019C22.7095 154.849 22.7907 155.712 23.1421 156.605C23.4291 157.335 23.8415 157.946 24.3794 158.439C24.9025 158.939 25.5201 159.263 26.2323 159.413C26.9238 159.553 27.6864 159.46 28.5202 159.132C29.3392 158.81 29.9612 158.359 30.3865 157.779C30.8059 157.184 31.037 156.526 31.0798 155.804C31.1077 155.088 30.9781 154.365 30.6911 153.636C30.3046 152.653 29.7725 151.934 29.0947 151.478C28.3962 151.014 27.598 150.82 26.7003 150.898L25.8042 148.62Z" fill="#F1EFE3"/>
<path d="M16.6193 142.336L15.0745 134.03L17.2216 133.631L18.7665 141.936L16.6193 142.336ZM12.9309 140.092L12.4393 137.45L27.3516 134.676L27.8431 137.319L12.9309 140.092Z" fill="#F1EFE3"/>
<path d="M22.0828 114.804L22.087 112.236C22.9028 112.366 23.6303 112.687 24.2694 113.2C24.8926 113.697 25.3875 114.378 25.7541 115.242C26.1047 116.107 26.279 117.139 26.277 118.339C26.2748 119.699 26.0248 120.915 25.527 121.986C25.0133 123.057 24.2919 123.896 23.3629 124.502C22.4339 125.109 21.3294 125.411 20.0494 125.409C18.7854 125.407 17.6819 125.109 16.7389 124.515C15.7958 123.922 15.0692 123.105 14.5589 122.064C14.0486 121.007 13.7946 119.791 13.7969 118.415C13.7992 116.991 14.0571 115.807 14.5707 114.864C15.0683 113.905 15.8214 113.194 16.8302 112.732C17.8229 112.269 19.0793 112.079 20.5991 112.162L20.5818 122.698C21.254 122.619 21.8623 122.404 22.4069 122.053C22.9355 121.686 23.3523 121.19 23.6573 120.567C23.9464 119.943 24.0916 119.216 24.0929 118.384C24.0944 117.456 23.9117 116.679 23.5447 116.055C23.1778 115.414 22.6905 114.997 22.0828 114.804ZM15.9567 118.49C15.9549 119.578 16.2255 120.475 16.7683 121.18C17.2952 121.884 17.9744 122.341 18.8061 122.551L18.8187 114.847C17.9226 114.909 17.226 115.268 16.7289 115.923C16.2159 116.579 15.9585 117.434 15.9567 118.49Z" fill="#F1EFE3"/>
<path d="M19.5447 92.5037L26.031 102.78L25.1446 102.911L27.0413 93.9417L29.1546 94.3886L26.8458 105.307L24.7325 104.86L18.2796 94.5421L19.1474 94.3821L17.2656 103.281L15.1524 102.835L17.4314 92.0568L19.5447 92.5037Z" fill="#F1EFE3"/>
<path d="M24.7442 83.7535L27.7109 76.7217L29.6789 77.552L26.7123 84.5838L24.7442 83.7535Z" fill="#F1EFE3"/>
<path d="M28.6316 64.5617L30.2404 62.4383L39.7668 69.6561L38.158 71.7795L28.6316 64.5617ZM33.0736 58.2617C33.4891 57.7133 33.9473 57.2675 34.4482 56.9244C34.9587 56.5685 35.499 56.3455 36.069 56.2555C36.636 56.1431 37.2167 56.1715 37.811 56.3408C38.4151 56.4974 39.0296 56.8124 39.6545 57.2858L45.6802 61.8513L44.0714 63.9747L38.4665 59.7281C37.6886 59.1386 36.9698 58.8951 36.3101 58.9975C35.6473 59.0775 35.0115 59.5192 34.4028 60.3226C33.939 60.9347 33.6477 61.5973 33.529 62.3104C33.4073 63.001 33.436 63.6651 33.6153 64.3028C33.7818 64.9308 34.0945 65.4588 34.5532 65.8866L33.5057 65.1231C33.0821 64.7018 32.7421 64.2233 32.4855 63.6877C32.2162 63.1424 32.051 62.5655 31.9899 61.9572C31.9162 61.3393 31.9672 60.7155 32.1431 60.086C32.319 59.4564 32.6291 58.8483 33.0736 58.2617ZM38.8276 50.6673C39.2527 50.1062 39.7157 49.654 40.2166 49.3109C40.7175 48.9677 41.253 48.7511 41.823 48.6611C42.39 48.5487 42.9755 48.5707 43.5795 48.7273C44.1836 48.8839 44.798 49.1989 45.4229 49.6723L51.4487 54.2378L49.8254 56.3803L44.2205 52.1337C43.4426 51.5443 42.7237 51.3008 42.064 51.4031C41.4012 51.4831 40.7655 51.9248 40.1567 52.7282C39.6929 53.3404 39.4017 54.003 39.283 54.716C39.1612 55.4066 39.19 56.0707 39.3693 56.7084C39.5455 57.3237 39.8629 57.8453 40.3216 58.2731L39.2214 57.4997C38.8106 57.0881 38.4818 56.6081 38.2348 56.0597C37.9752 55.5016 37.8148 54.9184 37.7538 54.3101C37.6927 53.7018 37.7453 53.0893 37.9115 52.4725C38.0874 51.8429 38.3928 51.2412 38.8276 50.6673Z" fill="#F1EFE3"/>
<path d="M62.4676 45.6197C61.412 46.4255 60.3189 46.9581 59.1883 47.2174C58.0577 47.4767 56.9692 47.422 55.9228 47.0533C54.8764 46.6846 53.9503 45.9725 53.1444 44.917C52.3483 43.8741 51.9103 42.7994 51.8304 41.6929C51.7408 40.5736 51.9652 39.4964 52.5036 38.4614C53.042 37.4264 53.8389 36.5059 54.8945 35.7001C55.95 34.8942 57.0416 34.3729 58.1692 34.136C59.2969 33.8992 60.3824 33.9763 61.4257 34.3674C62.4721 34.7361 63.3934 35.4418 64.1895 36.4846C64.9954 37.5402 65.4382 38.6212 65.5181 39.7278C65.6107 40.8247 65.3893 41.8794 64.8539 42.892C64.3186 43.9046 63.5231 44.8138 62.4676 45.6197ZM61.1423 43.8838C61.7527 43.4177 62.22 42.8697 62.5443 42.2397C62.8685 41.6097 62.9924 40.9414 62.9159 40.2349C62.8522 39.5186 62.5582 38.8171 62.0339 38.1303C61.5096 37.4436 60.9104 36.9751 60.2362 36.7248C59.5748 36.4649 58.8926 36.4019 58.1898 36.5359C57.4899 36.6475 56.8284 36.9412 56.2052 37.4169C55.5821 37.8927 55.1132 38.4519 54.7987 39.0946C54.4842 39.7373 54.3524 40.4217 54.4034 41.1477C54.4672 41.8639 54.766 42.5718 55.3 43.2713C55.8243 43.958 56.4235 44.4265 57.0977 44.6768C57.7719 44.927 58.4555 44.9788 59.1487 44.832C59.8546 44.6756 60.5191 44.3595 61.1423 43.8838Z" fill="#F1EFE3"/>
<path d="M69.2692 21.0348L70.4485 23.316L67.6129 24.7818L66.4337 22.5006L69.2692 21.0348ZM68.9723 26.8888L71.3601 25.6545L76.8486 36.2718L74.4608 37.5061L68.9723 26.8888Z" fill="#F1EFE3"/>
<path d="M94.0729 21.7272L101.542 20.1606L101.981 22.2511L94.5114 23.8178L94.0729 21.7272Z" fill="#F1EFE3"/>
<path d="M139.781 22.8203C139.463 23.9886 138.907 24.9556 138.111 25.7211C137.317 26.4707 136.318 26.9994 135.115 27.3071C133.93 27.6011 132.584 27.6476 131.077 27.4467C129.776 27.2734 128.602 26.9393 127.555 26.4445C126.523 25.9518 125.647 25.3185 124.927 24.5446C124.224 23.7569 123.717 22.8418 123.404 21.7993C123.109 20.743 123.047 19.5726 123.218 18.288C123.392 16.9875 123.758 15.8741 124.317 14.9479C124.892 14.0238 125.622 13.2736 126.506 12.6974C127.408 12.1074 128.421 11.7098 129.546 11.5047C130.687 11.3016 131.908 11.2868 133.208 11.4602C134.731 11.6631 136.024 12.0697 137.089 12.6797C138.17 13.2919 138.994 14.0716 139.562 15.0189C140.129 15.9663 140.404 17.0521 140.386 18.2765L137.77 17.9276C137.643 17.1844 137.374 16.5352 136.964 15.9801C136.556 15.4092 136.005 14.9403 135.311 14.5734C134.633 14.2086 133.827 13.9639 132.891 13.8391C131.717 13.6827 130.633 13.7641 129.638 14.0834C128.645 14.3869 127.823 14.923 127.172 15.6917C126.539 16.4466 126.141 17.4347 125.978 18.6559C125.817 19.8612 125.943 20.919 126.354 21.8294C126.783 22.726 127.437 23.4507 128.316 24.0037C129.194 24.5566 130.22 24.9113 131.394 25.0678C132.33 25.1925 133.171 25.1756 133.919 25.017C134.669 24.8425 135.314 24.5412 135.855 24.1129C136.399 23.6689 136.827 23.1206 137.14 22.4683L139.781 22.8203Z" fill="#F1EFE3"/>
<path d="M152.435 32.9893C151.2 32.5012 150.179 31.8398 149.374 31.0053C148.568 30.1708 148.053 29.2102 147.829 28.1237C147.604 27.0372 147.736 25.8764 148.224 24.6414C148.707 23.4212 149.401 22.4914 150.308 21.8518C151.22 21.1973 152.258 20.8336 153.423 20.7604C154.587 20.6873 155.787 20.8948 157.022 21.3829C158.257 21.871 159.267 22.5369 160.052 23.3804C160.837 24.2239 161.331 25.1935 161.535 26.289C161.759 27.3755 161.63 28.5288 161.148 29.749C160.66 30.984 159.962 31.9213 159.056 32.5609C158.164 33.2063 157.146 33.5611 156.003 33.6253C154.859 33.6894 153.67 33.4774 152.435 32.9893ZM153.238 30.9582C153.952 31.2405 154.662 31.3579 155.369 31.3104C156.076 31.2629 156.713 31.0241 157.278 30.5939C157.859 30.1696 158.308 29.5557 158.626 28.7522C158.943 27.9487 159.035 27.1936 158.901 26.487C158.783 25.7863 158.485 25.1696 158.007 24.6367C157.55 24.0949 156.957 23.6799 156.228 23.3917C155.499 23.1035 154.778 22.9906 154.065 23.053C153.352 23.1154 152.698 23.3557 152.103 23.7742C151.522 24.1985 151.07 24.8198 150.747 25.6382C150.429 26.4417 150.337 27.1968 150.471 27.9034C150.604 28.6099 150.913 29.2222 151.396 29.7402C151.895 30.264 152.508 30.67 153.238 30.9582Z" fill="#F1EFE3"/>
<path d="M172.214 28.9004L174.414 30.4025L167.675 40.2734L165.475 38.7713L172.214 28.9004ZM178.725 33.0262C179.293 33.4141 179.761 33.8498 180.129 34.3331C180.509 34.8255 180.759 35.3541 180.877 35.919C181.017 36.4798 181.017 37.0611 180.877 37.6631C180.751 38.2742 180.467 38.9034 180.025 39.5509L175.762 45.7946L173.562 44.2925L177.527 38.4849C178.077 37.6788 178.285 36.9489 178.15 36.295C178.037 35.637 177.565 35.0238 176.732 34.4554C176.098 34.0224 175.422 33.7642 174.704 33.6808C174.008 33.5933 173.346 33.6547 172.718 33.8653C172.099 34.0626 171.587 34.4009 171.183 34.8801L171.893 33.7963C172.293 33.3524 172.754 32.9892 173.277 32.7065C173.808 32.4106 174.376 32.2171 174.981 32.1262C175.594 32.022 176.22 32.0422 176.857 32.1868C177.495 32.3314 178.117 32.6112 178.725 33.0262Z" fill="#F1EFE3"/>
<path d="M189.84 42.2332L195.787 48.2336L194.235 49.771L188.289 43.7706L189.84 42.2332ZM194.151 42.015L196.043 43.9242L185.27 54.6014L183.378 52.6922L194.151 42.015Z" fill="#F1EFE3"/>
<path d="M194.709 66.5628C194.103 65.6588 193.766 64.681 193.698 63.6294C193.638 62.5912 193.842 61.5878 194.31 60.6195C194.801 59.6555 195.551 58.8352 196.562 58.1586C197.599 57.4642 198.654 57.0848 199.728 57.0204C200.815 56.9472 201.836 57.1492 202.791 57.6265C203.746 58.1038 204.544 58.821 205.185 59.7782C205.897 60.8418 206.23 61.8418 206.183 62.7782C206.136 63.7146 205.81 64.5784 205.203 65.3696C204.597 66.1607 203.809 66.8812 202.838 67.5311C202.293 67.8962 201.661 68.2037 200.943 68.4536C200.238 68.6947 199.51 68.8161 198.76 68.8176C198.019 68.8325 197.291 68.6653 196.576 68.3163C195.883 67.9716 195.261 67.3871 194.709 66.5628ZM196.997 66.0123C197.496 66.7567 198.058 67.2948 198.685 67.6263C199.333 67.9622 199.999 68.0939 200.683 68.0215C201.375 67.9624 202.04 67.7192 202.678 67.2918C203.383 66.82 203.887 66.2798 204.192 65.6712C204.51 65.0537 204.629 64.3967 204.548 63.7002C204.48 62.9947 204.196 62.2698 203.698 61.5253C202.986 60.4617 202.121 59.8467 201.105 59.6802C200.088 59.5136 199.081 59.7642 198.084 60.4319C197.433 60.8682 196.948 61.395 196.63 62.0125C196.32 62.6433 196.195 63.3048 196.254 63.9969C196.313 64.689 196.561 65.3608 196.997 66.0123ZM207.663 63.9533L209.159 66.1868L199.228 72.8371L197.839 70.7632C197.839 70.7632 197.957 70.6653 198.191 70.4696C198.426 70.2738 198.714 70.0425 199.055 69.7755C199.41 69.4997 199.753 69.2504 200.086 69.0279L207.663 63.9533Z" fill="#F1EFE3"/>
<path d="M211.671 89.9292C210.681 90.2074 209.742 90.2174 208.854 89.9592C207.966 89.701 207.173 89.2003 206.476 88.4572C205.784 87.7291 205.22 86.7976 204.783 85.6628C204.312 84.4384 204.108 83.2397 204.171 82.0668C204.239 80.9089 204.594 79.8721 205.236 78.9564C205.878 78.0407 206.819 77.3443 208.058 76.8673C209.298 76.3903 210.462 76.2762 211.553 76.5252C212.643 76.7742 213.609 77.3024 214.451 78.1098C215.299 78.9321 215.959 79.9554 216.43 81.1798C216.867 82.3147 217.065 83.387 217.025 84.3967C217 85.4007 216.753 86.2933 216.282 87.0746C215.811 87.8559 215.115 88.4752 214.194 88.9326L213.314 86.648C214.008 86.0896 214.442 85.391 214.617 84.5524C214.812 83.723 214.737 82.8603 214.392 81.9644C214.11 81.2327 213.702 80.6182 213.168 80.1209C212.649 79.6179 212.034 79.289 211.322 79.1341C210.632 78.9884 209.869 79.0764 209.032 79.3983C208.211 79.7144 207.586 80.1608 207.156 80.7376C206.733 81.3293 206.497 81.9859 206.449 82.7073C206.416 83.4229 206.54 84.1466 206.821 84.8783C207.201 85.8638 207.728 86.5868 208.402 87.0473C209.097 87.5169 209.894 87.716 210.792 87.6446L211.671 89.9292Z" fill="#F1EFE3"/>
<path d="M220.81 96.281L222.294 104.598L220.144 104.981L218.66 96.6647L220.81 96.281ZM224.482 98.5513L224.954 101.198L210.022 103.862L209.55 101.216L224.482 98.5513Z" fill="#F1EFE3"/>
<path d="M215.145 123.772L215.122 126.34C214.307 126.204 213.582 125.878 212.947 125.36C212.327 124.859 211.837 124.174 211.477 123.307C211.133 122.44 210.966 121.406 210.977 120.206C210.989 118.846 211.248 117.633 211.754 116.565C212.275 115.498 213.003 114.664 213.936 114.065C214.869 113.465 215.976 113.171 217.256 113.182C218.52 113.194 219.621 113.499 220.56 114.1C221.499 114.7 222.219 115.523 222.722 116.567C223.224 117.628 223.47 118.846 223.457 120.222C223.444 121.646 223.178 122.828 222.657 123.767C222.153 124.723 221.394 125.428 220.382 125.883C219.386 126.338 218.129 126.519 216.609 126.425L216.704 115.889C216.031 115.963 215.421 116.174 214.874 116.521C214.343 116.884 213.922 117.377 213.613 117.998C213.319 118.619 213.169 119.346 213.161 120.178C213.153 121.106 213.33 121.883 213.692 122.511C214.055 123.154 214.539 123.574 215.145 123.772ZM221.298 120.131C221.308 119.043 221.044 118.144 220.506 117.436C219.984 116.727 219.309 116.265 218.478 116.049L218.409 123.753C219.306 123.697 220.005 123.343 220.507 122.692C221.025 122.04 221.288 121.187 221.298 120.131Z" fill="#F1EFE3"/>
<path d="M217.52 146.09L211.109 135.767L211.996 135.642L210.034 144.597L207.924 144.135L210.313 133.234L212.423 133.696L218.8 144.061L217.931 144.215L219.878 135.33L221.988 135.792L219.63 146.553L217.52 146.09Z" fill="#F1EFE3"/>
<path d="M212.256 154.802L209.238 161.812L207.276 160.967L210.294 153.957L212.256 154.802Z" fill="#F1EFE3"/>
<path d="M208.229 173.965L206.604 176.077L197.131 168.789L198.755 166.678L208.229 173.965ZM203.74 180.232C203.321 180.778 202.86 181.22 202.356 181.559C201.843 181.912 201.301 182.131 200.73 182.216C200.163 182.325 199.582 182.292 198.989 182.118C198.386 181.957 197.774 181.638 197.153 181.16L191.16 176.55L192.785 174.439L198.358 178.726C199.132 179.322 199.849 179.57 200.509 179.473C201.173 179.398 201.812 178.961 202.426 178.162C202.895 177.553 203.191 176.892 203.315 176.18C203.442 175.491 203.418 174.826 203.243 174.187C203.081 173.558 202.772 173.028 202.317 172.597L203.359 173.368C203.779 173.792 204.116 174.273 204.368 174.811C204.634 175.358 204.795 175.936 204.851 176.545C204.92 177.163 204.865 177.787 204.684 178.415C204.504 179.043 204.189 179.649 203.74 180.232ZM197.931 187.784C197.502 188.342 197.035 188.791 196.532 189.131C196.029 189.47 195.492 189.683 194.921 189.768C194.353 189.877 193.768 189.85 193.165 189.689C192.562 189.528 191.95 189.209 191.329 188.731L185.336 184.121L186.975 181.991L192.549 186.278C193.323 186.874 194.04 187.122 194.7 187.025C195.363 186.95 196.002 186.513 196.617 185.714C197.085 185.105 197.381 184.445 197.505 183.732C197.632 183.043 197.608 182.378 197.434 181.739C197.262 181.123 196.948 180.599 196.493 180.168L197.587 180.949C197.995 181.364 198.32 181.846 198.563 182.396C198.819 182.956 198.975 183.541 199.031 184.149C199.088 184.758 199.031 185.37 198.86 185.986C198.68 186.614 198.37 187.214 197.931 187.784Z" fill="#F1EFE3"/>
<path d="M174.255 192.659C175.316 191.861 176.413 191.336 177.546 191.085C178.678 190.834 179.766 190.897 180.81 191.273C181.854 191.649 182.774 192.368 183.573 193.43C184.361 194.478 184.791 195.556 184.863 196.663C184.944 197.783 184.712 198.859 184.166 199.89C183.62 200.921 182.816 201.835 181.755 202.633C180.694 203.432 179.598 203.945 178.469 204.173C177.34 204.402 176.255 204.317 175.214 203.918C174.17 203.542 173.254 202.829 172.466 201.781C171.668 200.719 171.233 199.635 171.161 198.528C171.077 197.431 171.306 196.377 171.848 195.369C172.391 194.36 173.193 193.457 174.255 192.659ZM175.567 194.404C174.953 194.866 174.482 195.41 174.153 196.038C173.824 196.666 173.696 197.333 173.767 198.04C173.825 198.757 174.114 199.46 174.634 200.151C175.153 200.842 175.749 201.314 176.421 201.57C177.08 201.834 177.762 201.902 178.466 201.773C179.167 201.667 179.83 201.378 180.457 200.907C181.083 200.436 181.556 199.88 181.876 199.24C182.195 198.599 182.332 197.916 182.286 197.19C182.227 196.473 181.934 195.763 181.405 195.059C180.886 194.369 180.29 193.896 179.618 193.641C178.945 193.386 178.262 193.329 177.568 193.471C176.861 193.622 176.194 193.933 175.567 194.404Z" fill="#F1EFE3"/>
<path d="M167.273 217.193L166.111 214.903L168.957 213.458L170.119 215.748L167.273 217.193ZM167.613 211.341L165.216 212.558L159.806 201.901L162.202 200.684L167.613 211.341Z" fill="#F1EFE3"/>
<path d="M142.475 216.319L134.995 217.831L134.571 215.737L142.052 214.225L142.475 216.319Z" fill="#F1EFE3"/>
</svg>
