<svg width="154" height="154" viewBox="0 0 154 154" fill="none" xmlns="http://www.w3.org/2000/svg">
<path d="M64.0667 141.523C64.2411 140.704 64.6002 140.026 65.1442 139.488C65.6883 138.95 66.3944 138.567 67.2626 138.339C68.1308 138.11 69.1436 138.051 70.3011 138.16C71.2674 138.252 72.1435 138.447 72.9294 138.747C73.7046 139.045 74.363 139.445 74.9047 139.946C75.4357 140.447 75.8292 141.041 76.0852 141.73C76.3402 142.429 76.4252 143.224 76.3404 144.116C76.2556 145.008 76.0221 145.774 75.6399 146.412C75.2577 147.051 74.7587 147.567 74.1429 147.958C73.5154 148.359 72.7929 148.634 71.9752 148.781C71.1459 148.939 70.2481 148.971 69.2818 148.88C68.1243 148.77 67.1413 148.517 66.3326 148.119C65.5134 147.719 64.8878 147.2 64.4559 146.559C64.0229 145.928 63.8038 145.19 63.7987 144.343L65.9013 144.542C65.9969 145.001 66.1942 145.405 66.4931 145.755C66.7803 146.114 67.1708 146.403 67.6643 146.621C68.1579 146.84 68.7551 146.982 69.456 147.048C70.3267 147.131 71.1044 147.065 71.7891 146.851C72.4727 146.648 73.0203 146.298 73.4318 145.802C73.8424 145.315 74.0845 144.685 74.1582 143.91C74.2309 143.145 74.1114 142.486 73.7999 141.931C73.4883 141.376 73.0164 140.93 72.3843 140.592C71.7511 140.264 70.9992 140.059 70.1284 139.976C69.4276 139.91 68.8195 139.938 68.3042 140.061C67.7784 140.182 67.341 140.387 66.9921 140.676C66.6326 140.963 66.3584 141.312 66.1693 141.723L64.0667 141.523Z" fill="#F1EFE3"/>
<path d="M55.8605 134.818C56.805 135.154 57.5851 135.602 58.2008 136.161C58.8064 136.717 59.2077 137.352 59.4048 138.068C59.5983 138.794 59.5442 139.578 59.2424 140.422C58.9406 141.266 58.4845 141.907 57.8742 142.346C57.2603 142.796 56.5427 143.044 55.7216 143.091C54.8903 143.134 54.0025 142.988 53.058 142.651C52.1135 142.315 51.3434 141.871 50.7479 141.319C50.1423 140.763 49.7445 140.118 49.5546 139.382C49.3611 138.656 49.4152 137.871 49.717 137.028C50.0189 136.184 50.4749 135.543 51.0852 135.103C51.6919 134.674 52.4059 134.436 53.2271 134.389C54.0382 134.338 54.916 134.481 55.8605 134.818ZM55.3216 136.324C54.7991 136.138 54.2995 136.062 53.8229 136.096C53.3326 136.136 52.904 136.289 52.5371 136.555C52.1666 136.83 51.8898 137.224 51.7065 137.737C51.5233 138.249 51.4875 138.729 51.5993 139.176C51.7075 139.634 51.9335 140.031 52.2772 140.369C52.6209 140.707 53.059 140.97 53.5915 141.16C54.114 141.346 54.6204 141.419 55.1107 141.379C55.601 141.338 56.0364 141.182 56.4169 140.91C56.7874 140.634 57.0661 140.235 57.2529 139.713C57.4362 139.201 57.4719 138.721 57.3601 138.273C57.2447 137.836 57.0101 137.447 56.6564 137.105C56.299 136.774 55.8541 136.514 55.3216 136.324Z" fill="#F1EFE3"/>
<path d="M42.8256 137.932L41.0747 136.809L45.3794 130.123L47.1303 131.246L42.8256 137.932ZM37.8682 134.962C37.4552 134.697 37.1082 134.399 36.8273 134.066C36.5464 133.734 36.3479 133.373 36.2319 132.981C36.1159 132.59 36.0986 132.174 36.1802 131.732C36.2559 131.299 36.4468 130.845 36.7529 130.369L39.3859 126.28L41.1368 127.402L38.703 131.183C38.3392 131.748 38.2128 132.25 38.3236 132.688C38.4198 133.13 38.7776 133.549 39.3972 133.947C39.8641 134.246 40.3439 134.427 40.8365 134.49C41.3291 134.552 41.7816 134.519 42.1941 134.391C42.6007 134.271 42.9173 134.075 43.1438 133.802L42.7155 134.497C42.4685 134.782 42.1689 135.021 41.8168 135.213C41.4646 135.406 41.0759 135.536 40.6506 135.606C40.2106 135.678 39.7558 135.666 39.2863 135.567C38.8168 135.469 38.3441 135.267 37.8682 134.962Z" fill="#F1EFE3"/>
<path d="M30.4768 129.063L26.0205 124.787L27.1416 123.623L31.5979 127.899L30.4768 129.063ZM27.4893 129.212L25.9885 127.772L33.0153 120.478L34.5161 121.918L27.4893 129.212Z" fill="#F1EFE3"/>
<path d="M26.6305 112.614C27.0836 113.261 27.3569 113.948 27.4505 114.676C27.5292 115.402 27.4252 116.099 27.1383 116.767C26.8366 117.433 26.349 118.001 25.6755 118.471C24.9846 118.954 24.2753 119.215 23.5476 119.255C22.8199 119.294 22.1294 119.145 21.476 118.808C20.8078 118.468 20.235 117.957 19.7574 117.276C19.2309 116.525 18.9615 115.815 18.9493 115.147C18.9221 114.477 19.0931 113.857 19.4622 113.287C19.8313 112.717 20.3351 112.209 20.9735 111.763C21.3584 111.495 21.7948 111.281 22.2828 111.122C22.7621 110.97 23.2611 110.901 23.7797 110.916C24.2896 110.938 24.7934 111.08 25.2911 111.344C25.78 111.614 26.2265 112.038 26.6305 112.614ZM24.9329 112.98C24.5717 112.464 24.172 112.08 23.7338 111.827C23.2956 111.573 22.8487 111.456 22.393 111.475C21.9374 111.494 21.504 111.647 21.0929 111.934C20.6469 112.245 20.3443 112.612 20.1851 113.036C20.011 113.456 19.9769 113.91 20.0828 114.395C20.1737 114.878 20.3998 115.377 20.761 115.892C21.2692 116.617 21.8565 117.046 22.5229 117.18C23.1807 117.319 23.8244 117.169 24.4541 116.729C24.8739 116.436 25.1739 116.083 25.3541 115.671C25.5255 115.265 25.5793 114.831 25.5154 114.368C25.4455 113.897 25.2513 113.434 24.9329 112.98ZM17.8262 114.214L16.6324 112.511L23.1526 107.959L24.2638 109.544C24.2638 109.544 24.1899 109.615 24.0421 109.758C23.8794 109.897 23.673 110.067 23.4229 110.268C23.1727 110.469 22.9209 110.657 22.6672 110.835L17.8262 114.214Z" fill="#F1EFE3"/>
<path d="M14.6595 96.4042C15.3215 96.191 15.9595 96.1721 16.5734 96.3474C17.1833 96.5129 17.7413 96.8609 18.2474 97.3914C18.7437 97.926 19.1701 98.6274 19.5267 99.4958C19.8994 100.404 20.0905 101.276 20.1 102.114C20.0955 102.945 19.897 103.683 19.5044 104.328C19.0979 104.967 18.4751 105.458 17.6359 105.801C16.7967 106.144 16.0077 106.23 15.269 106.06C14.5262 105.88 13.8608 105.495 13.2729 104.906C12.681 104.307 12.1986 103.553 11.8258 102.645C11.4693 101.777 11.2868 100.982 11.2784 100.259C11.2601 99.5405 11.405 98.9107 11.7133 98.3698C12.0176 97.8189 12.4784 97.3827 13.0958 97.061L13.8191 98.8223C13.3943 99.1919 13.1369 99.6602 13.0468 100.227C12.9568 100.794 13.0434 101.398 13.3068 102.04C13.5175 102.553 13.7988 102.985 14.1507 103.337C14.4986 103.678 14.9029 103.905 15.3637 104.016C15.8105 104.121 16.3005 104.065 16.8337 103.847C17.3569 103.633 17.7456 103.33 17.9997 102.938C18.244 102.55 18.3679 102.107 18.3713 101.61C18.365 101.118 18.2564 100.615 18.0457 100.101C17.7621 99.4107 17.3929 98.9048 16.9382 98.5838C16.4795 98.2528 15.961 98.1134 15.3828 98.1655L14.6595 96.4042Z" fill="#F1EFE3"/>
<path d="M9.0439 93.4855L7.80841 87.4344L9.39199 87.1123L10.6275 93.1635L9.0439 93.4855ZM6.50185 91.9126L6.08575 89.8746L16.0106 87.8563L16.4267 89.8942L6.50185 91.9126Z" fill="#F1EFE3"/>
<path d="M12.3772 74.4004L12.3508 72.3846C12.8958 72.4628 13.3841 72.6858 13.8157 73.0535C14.2471 73.4106 14.5895 73.9022 14.8431 74.5282C15.0967 75.1543 15.2294 75.9206 15.2413 76.8272C15.2546 77.8405 15.1064 78.7385 14.7966 79.5213C14.4762 80.3042 14.0096 80.9183 13.3967 81.3637C12.7838 81.8091 12.0401 82.0375 11.1655 82.0489C10.2909 82.0604 9.54148 81.8568 8.91727 81.4383C8.28239 81.0199 7.79466 80.4342 7.45409 79.6812C7.11337 78.9176 6.93629 78.0239 6.92286 77C6.90914 75.9547 7.06305 75.0833 7.38459 74.3857C7.70613 73.6881 8.2007 73.1696 8.86831 72.8302C9.52511 72.4802 10.3711 72.3252 11.4064 72.365L11.5059 79.9483C11.9105 79.8897 12.2765 79.7356 12.604 79.4859C12.9312 79.2256 13.1881 78.8809 13.3745 78.4518C13.5607 78.012 13.6499 77.4934 13.6421 76.8961C13.6334 76.2349 13.5142 75.687 13.2845 75.2527C13.044 74.8078 12.7415 74.5237 12.3772 74.4004ZM8.50798 77.0752C8.51806 77.8432 8.6969 78.4649 9.0445 78.9404C9.38144 79.416 9.79613 79.72 10.2886 79.8522L10.2176 74.4447C9.68502 74.505 9.26708 74.7665 8.9638 75.2291C8.6497 75.6813 8.49776 76.2966 8.50798 77.0752Z" fill="#F1EFE3"/>
<path d="M10.8701 59.2674L14.9494 66.5129L14.3094 66.6151L15.6013 60.0857L17.1397 60.3888L15.559 68.378L14.0206 68.0748L9.94132 60.8293L10.5813 60.7271L9.31116 67.1467L7.75705 66.8404L9.31604 58.9612L10.8701 59.2674Z" fill="#F1EFE3"/>
<path d="M13.9631 54.0173L15.963 49.0616L17.4178 49.6464L15.418 54.6021L13.9631 54.0173Z" fill="#F1EFE3"/>
<path d="M16.2275 41.7386L17.4565 40.0605L23.8808 44.747L22.6518 46.4251L16.2275 41.7386ZM19.4982 36.975C19.7881 36.5792 20.1077 36.2512 20.4569 35.991C20.8061 35.7308 21.1799 35.5545 21.5781 35.4621C21.9763 35.3697 22.3939 35.3773 22.8308 35.4848C23.2591 35.586 23.7016 35.8031 24.1583 36.1363L28.0878 39.0029L26.8588 40.681L23.2266 38.0313C22.6837 37.6352 22.1896 37.4794 21.7443 37.5639C21.2967 37.6335 20.8555 37.9651 20.4206 38.5589C20.0928 39.0064 19.8828 39.4737 19.7904 39.9609C19.698 40.448 19.7035 40.9009 19.8068 41.3195C19.9014 41.7319 20.0783 42.059 20.3375 42.3008L19.6688 41.8328C19.3987 41.5698 19.1782 41.2571 19.0073 40.8947C18.8363 40.5324 18.7291 40.1373 18.6855 39.7094C18.6396 39.2666 18.6801 38.8142 18.8069 38.3522C18.9337 37.8902 19.1642 37.4311 19.4982 36.975ZM23.5918 31.3858C23.8818 30.9899 24.2013 30.6619 24.5505 30.4018C24.8998 30.1416 25.2735 29.9653 25.6717 29.8729C26.0699 29.7805 26.4875 29.788 26.9244 29.8955C27.359 29.9881 27.8047 30.201 28.2614 30.5342L32.1909 33.4008L30.9619 35.0788L27.3296 32.4291C26.7868 32.0331 26.2927 31.8773 25.8474 31.9617C25.3935 32.0399 24.9491 32.3759 24.5142 32.9697C24.1864 33.4172 23.9764 33.8845 23.884 34.3716C23.7917 34.8588 23.7971 35.3117 23.9004 35.7303C23.995 36.1426 24.1751 36.4654 24.4406 36.6987L23.7236 36.2153C23.4708 35.9648 23.262 35.6541 23.0974 35.2832C22.9328 34.9122 22.8318 34.5085 22.7946 34.072C22.7573 33.6355 22.7989 33.1905 22.9194 32.7371C23.0463 32.2751 23.2704 31.8247 23.5918 31.3858Z" fill="#F1EFE3"/>
<path d="M39.2381 28.2257C38.4482 28.8432 37.6519 29.2626 36.8492 29.4838C36.055 29.6985 35.3021 29.6981 34.5906 29.4825C33.8725 29.2586 33.2369 28.7942 32.6837 28.0894C32.1305 27.3845 31.8311 26.6573 31.7853 25.9079C31.7329 25.15 31.9063 24.4121 32.3054 23.6939C32.7129 22.9692 33.3116 22.2981 34.1016 21.6806C34.8916 21.0631 35.6795 20.6503 36.4653 20.4422C37.2595 20.2276 38.019 20.2364 38.7437 20.4687C39.4618 20.6926 40.0974 21.157 40.6506 21.8619C41.2038 22.5667 41.5032 23.2939 41.549 24.0434C41.5882 24.7844 41.4083 25.514 41.0092 26.2321C40.6184 26.9437 40.0281 27.6082 39.2381 28.2257ZM38.2503 26.9671C38.6873 26.6255 39.0189 26.2445 39.2449 25.8241C39.4727 25.3888 39.5723 24.9454 39.5435 24.4941C39.5081 24.0344 39.3225 23.5905 38.9866 23.1626C38.6508 22.7346 38.2635 22.4484 37.8247 22.304C37.3794 22.1512 36.9218 22.1297 36.4522 22.2396C35.9825 22.3495 35.5249 22.5786 35.0795 22.9267C34.6425 23.2683 34.3101 23.6568 34.0823 24.0921C33.8544 24.5274 33.754 24.9783 33.781 25.4446C33.8163 25.9043 34.0052 26.3523 34.3477 26.7887C34.6835 27.2166 35.0708 27.5028 35.5096 27.6472C35.9418 27.7833 36.3969 27.7931 36.875 27.6766C37.3465 27.5517 37.8049 27.3152 38.2503 26.9671Z" fill="#F1EFE3"/>
<path d="M43.9169 11.5922L44.7657 13.2066L42.6254 14.3274L41.7766 12.713L43.9169 11.5922ZM43.5416 15.726L45.3842 14.7611L49.0847 21.7996L47.2421 22.7645L43.5416 15.726Z" fill="#F1EFE3"/>
<path d="M60.9578 11.9672L66.187 10.8654L66.5115 12.3995L61.2823 13.5012L60.9578 11.9672Z" fill="#F1EFE3"/>
<path d="M92.4415 12.9482C92.2348 13.7599 91.849 14.4236 91.2841 14.9395C90.7192 15.4553 89.9984 15.8102 89.1218 16.0042C88.2452 16.1982 87.2308 16.2175 86.0785 16.0622C85.1166 15.9326 84.2489 15.7026 83.4755 15.3724C82.7127 15.0436 82.0707 14.618 81.5493 14.0957C81.0386 13.5748 80.6689 12.9653 80.4405 12.2672C80.2135 11.5585 80.16 10.7602 80.2802 9.87233C80.4003 8.98442 80.664 8.22887 81.0712 7.60568C81.4785 6.98249 81.9976 6.48738 82.6285 6.12036C83.2714 5.74419 84.0043 5.49855 84.8271 5.38342C85.662 5.25915 86.5604 5.26184 87.5224 5.39148C88.6746 5.54677 89.6469 5.83925 90.4391 6.26891C91.2419 6.69999 91.8463 7.24427 92.2525 7.90175C92.6601 8.54865 92.8497 9.29533 92.8213 10.1418L90.7282 9.8597C90.6509 9.39722 90.4698 8.98535 90.185 8.62407C89.9122 8.25365 89.5335 7.94969 89.049 7.71218C88.5645 7.47467 87.9734 7.3089 87.2757 7.21487C86.4088 7.09804 85.6291 7.13288 84.9365 7.31938C84.2454 7.49531 83.6843 7.82331 83.2534 8.30339C82.8239 8.7729 82.5569 9.39347 82.4525 10.1651C82.3495 10.9262 82.4427 11.5899 82.7321 12.1563C83.0214 12.7227 83.4752 13.1874 84.0934 13.5506C84.713 13.9032 85.4563 14.1379 86.3231 14.2547C87.0208 14.3487 87.6295 14.3447 88.1492 14.2425C88.6795 14.1418 89.1247 13.9542 89.4847 13.6798C89.8554 13.4069 90.1433 13.069 90.3485 12.6661L92.4415 12.9482Z" fill="#F1EFE3"/>
<path d="M100.375 19.9725C99.445 19.5988 98.6832 19.1205 98.0902 18.5376C97.5071 17.9585 97.1312 17.3076 96.9626 16.5847C96.798 15.8519 96.8833 15.07 97.2183 14.239C97.5533 13.408 98.0345 12.7851 98.6618 12.3703C99.293 11.9457 100.02 11.726 100.842 11.7115C101.675 11.7009 102.556 11.8824 103.486 12.256C104.417 12.6297 105.169 13.104 105.742 13.679C106.325 14.2581 106.697 14.9189 106.858 15.6616C107.022 16.3944 106.937 17.1762 106.602 18.0072C106.267 18.8383 105.786 19.4611 105.158 19.8759C104.535 20.2808 103.812 20.4906 102.99 20.5051C102.177 20.5237 101.306 20.3461 100.375 19.9725ZM100.974 18.4886C101.488 18.6953 101.985 18.791 102.462 18.7759C102.954 18.7549 103.388 18.619 103.765 18.3681C104.146 18.1074 104.439 17.7248 104.642 17.2202C104.845 16.7157 104.9 16.2376 104.806 15.7861C104.716 15.3247 104.506 14.9185 104.176 14.5675C103.846 14.2166 103.419 13.9358 102.894 13.7251C102.379 13.5184 101.876 13.4256 101.385 13.4466C100.893 13.4676 100.452 13.6065 100.061 13.8633C99.6799 14.124 99.3856 14.5116 99.1782 15.0261C98.9748 15.5306 98.92 16.0086 99.014 16.4602C99.112 16.9018 99.3309 17.3001 99.6709 17.655C100.015 18 100.449 18.2779 100.974 18.4886Z" fill="#F1EFE3"/>
<path d="M113.524 17.3761L115.229 18.5673L110.663 25.0775L108.958 23.8863L113.524 17.3761ZM118.36 20.5399C118.762 20.8209 119.097 21.133 119.365 21.476C119.632 21.819 119.816 22.1883 119.916 22.5838C120.017 22.9792 120.018 23.3961 119.919 23.8344C119.826 24.264 119.617 24.7102 119.292 25.1731L116.499 29.1552L114.794 27.9639L117.376 24.2831C117.762 23.733 117.908 23.2366 117.815 22.7939C117.736 22.3487 117.395 21.9153 116.792 21.4938C116.337 21.1761 115.865 20.9764 115.375 20.8944C114.885 20.8125 114.432 20.8275 114.015 20.9394C113.604 21.0425 113.279 21.226 113.042 21.4897L113.498 20.8125C113.756 20.5374 114.065 20.3107 114.424 20.1325C114.784 19.9543 115.177 19.8389 115.605 19.7864C116.048 19.7313 116.502 19.7621 116.967 19.879C117.432 19.9958 117.896 20.2162 118.36 20.5399Z" fill="#F1EFE3"/>
<path d="M125.511 26.7263L129.794 31.1755L128.628 32.294L124.344 27.8448L125.511 26.7263ZM128.502 26.6956L129.944 28.1941L122.634 35.2039L121.192 33.7055L128.502 26.6956Z" fill="#F1EFE3"/>
<path d="M128.702 43.3147C128.275 42.6509 128.029 41.9533 127.964 41.2219C127.914 40.4938 128.046 39.8013 128.359 39.1446C128.687 38.4911 129.196 37.9427 129.888 37.4996C130.597 37.045 131.316 36.8122 132.045 36.8013C132.774 36.7905 133.458 36.9666 134.097 37.3296C134.751 37.6959 135.304 38.2288 135.754 38.9285C136.25 39.7 136.491 40.4197 136.477 41.0876C136.478 41.7587 136.282 42.3716 135.891 42.9265C135.499 43.4813 134.976 43.9688 134.32 44.3889C133.925 44.6421 133.481 44.8383 132.987 44.9775C132.502 45.1109 132 45.1597 131.483 45.124C130.974 45.0826 130.476 44.9201 129.99 44.6366C129.512 44.3474 129.082 43.9067 128.702 43.3147ZM130.412 43.0166C130.753 43.5458 131.137 43.9458 131.565 44.2164C131.993 44.487 132.434 44.6219 132.891 44.621C133.347 44.6202 133.786 44.4845 134.208 44.214C134.666 43.9205 134.983 43.5654 135.159 43.1487C135.349 42.7351 135.401 42.2837 135.315 41.7944C135.243 41.3083 135.037 40.8006 134.696 40.2714C134.217 39.5268 133.647 39.0748 132.987 38.9154C132.335 38.7502 131.686 38.8748 131.039 39.2892C130.608 39.5655 130.294 39.9058 130.098 40.3104C129.911 40.7092 129.84 41.141 129.885 41.606C129.937 42.0799 130.112 42.5501 130.412 43.0166ZM137.562 42.0645L138.688 43.8137L131.992 48.1041L130.945 46.476C130.945 46.476 131.021 46.4079 131.175 46.2716C131.343 46.1386 131.556 45.9767 131.814 45.7862C132.072 45.5956 132.331 45.4168 132.591 45.2499L137.562 42.0645Z" fill="#F1EFE3"/>
<path d="M140.02 59.9851C139.35 60.1719 138.712 60.1656 138.106 59.9661C137.503 59.7767 136.959 59.4069 136.474 58.8567C136 58.3029 135.601 57.5851 135.28 56.7033C134.943 55.7815 134.787 54.902 134.811 54.0648C134.848 53.234 135.076 52.5043 135.493 51.8758C135.925 51.2536 136.567 50.7876 137.419 50.4778C138.271 50.1681 139.063 50.1129 139.794 50.3124C140.529 50.5218 141.179 50.9326 141.743 51.5447C142.31 52.1669 142.762 52.9389 143.099 53.8607C143.421 54.7425 143.572 55.5446 143.551 56.2669C143.541 56.9857 143.371 57.6092 143.042 58.1376C142.716 58.676 142.238 59.0937 141.609 59.3907L140.956 57.6021C141.395 57.2495 141.671 56.7918 141.783 56.2288C141.896 55.6658 141.833 55.0587 141.595 54.4074C141.405 53.8863 141.141 53.4432 140.803 53.0779C140.469 52.7227 140.074 52.4804 139.618 52.351C139.176 52.2281 138.684 52.265 138.143 52.4618C137.612 52.655 137.211 52.9424 136.942 53.3241C136.682 53.7021 136.541 54.1394 136.518 54.6359C136.505 55.1287 136.593 55.6356 136.783 56.1567C137.039 56.8581 137.388 57.3782 137.83 57.717C138.275 58.0659 138.788 58.2257 139.367 58.1966L140.02 59.9851Z" fill="#F1EFE3"/>
<path d="M145.514 63.1236L146.509 69.219L144.914 69.4782L143.919 63.3828L145.514 63.1236ZM147.992 64.7959L148.327 66.8487L138.33 68.4731L137.995 66.4203L147.992 64.7959Z" fill="#F1EFE3"/>
<path d="M141.426 82.0619L141.373 84.0771C140.831 83.9774 140.352 83.7353 139.935 83.3509C139.519 82.977 139.196 82.4723 138.967 81.8367C138.739 81.2011 138.637 80.4301 138.661 79.5238C138.688 78.5108 138.871 77.6194 139.212 76.8494C139.563 76.0798 140.054 75.4846 140.684 75.0638C141.314 74.643 142.066 74.4441 142.941 74.4673C143.815 74.4904 144.556 74.7234 145.163 75.1663C145.781 75.6095 146.245 76.214 146.555 76.9798C146.865 77.7563 147.007 78.6563 146.979 79.68C146.952 80.7249 146.763 81.5896 146.414 82.2739C146.065 82.9583 145.551 83.4568 144.87 83.7696C144.2 84.0933 143.348 84.2148 142.316 84.1341L142.517 76.5528C142.11 76.5954 141.739 76.7349 141.401 76.9714C141.064 77.2186 140.794 77.5529 140.591 77.9743C140.387 78.4064 140.277 78.921 140.261 79.5181C140.244 80.1792 140.341 80.7313 140.554 81.1744C140.776 81.6285 141.067 81.9243 141.426 82.0619ZM145.399 79.5421C145.419 78.7744 145.265 78.1461 144.937 77.6572C144.619 77.1686 144.216 76.8485 143.73 76.6969L143.586 82.103C144.12 82.0638 144.548 81.8191 144.87 81.3687C145.202 80.9294 145.378 80.3205 145.399 79.5421Z" fill="#F1EFE3"/>
<path d="M142.331 97.2422L138.543 89.8414L139.186 89.7646L137.636 96.2376L136.111 95.8738L138.007 87.9537L139.533 88.3175L143.321 95.7183L142.678 95.7951L144.202 89.431L145.742 89.7985L143.872 97.6097L142.331 97.2422Z" fill="#F1EFE3"/>
<path d="M139.033 102.366L136.838 107.238L135.407 106.596L137.602 101.724L139.033 102.366Z" fill="#F1EFE3"/>
<path d="M136.283 114.545L134.988 116.174L128.754 111.236L130.049 109.608L136.283 114.545ZM132.826 119.176C132.52 119.56 132.188 119.875 131.829 120.121C131.47 120.367 131.089 120.528 130.688 120.605C130.286 120.682 129.869 120.657 129.437 120.533C129.013 120.415 128.579 120.18 128.136 119.829L124.323 116.809L125.618 115.181L129.142 117.973C129.669 118.39 130.156 118.565 130.605 118.498C131.055 118.447 131.509 118.133 131.967 117.557C132.312 117.122 132.541 116.664 132.652 116.181C132.764 115.698 132.776 115.245 132.69 114.822C132.611 114.407 132.448 114.073 132.198 113.821L132.848 114.315C133.107 114.589 133.315 114.91 133.472 115.279C133.628 115.647 133.72 116.046 133.746 116.476C133.775 116.92 133.716 117.37 133.571 117.827C133.426 118.284 133.178 118.733 132.826 119.176ZM128.514 124.598C128.209 124.982 127.876 125.297 127.517 125.544C127.158 125.79 126.777 125.951 126.376 126.028C125.974 126.104 125.557 126.08 125.125 125.955C124.694 125.846 124.257 125.615 123.814 125.264L120.001 122.244L121.296 120.616L124.82 123.408C125.347 123.825 125.835 124 126.283 123.934C126.74 123.873 127.197 123.555 127.655 122.979C128 122.545 128.229 122.086 128.34 121.603C128.452 121.12 128.464 120.667 128.378 120.245C128.299 119.829 128.132 119.5 127.876 119.256L128.574 119.767C128.816 120.028 129.013 120.346 129.162 120.724C129.312 121.101 129.397 121.508 129.417 121.946C129.437 122.383 129.378 122.826 129.239 123.275C129.094 123.731 128.853 124.173 128.514 124.598Z" fill="#F1EFE3"/>
<path d="M112.754 127.137C113.568 126.552 114.38 126.164 115.191 125.975C115.993 125.792 116.745 125.822 117.448 126.066C118.156 126.318 118.773 126.807 119.298 127.533C119.823 128.259 120.093 128.998 120.109 129.749C120.131 130.508 119.929 131.239 119.502 131.94C119.066 132.648 118.441 133.295 117.627 133.881C116.813 134.467 116.01 134.848 115.216 135.025C114.414 135.208 113.656 135.169 112.941 134.908C112.232 134.656 111.616 134.167 111.091 133.44C110.566 132.714 110.296 131.976 110.279 131.225C110.27 130.483 110.478 129.761 110.906 129.059C111.324 128.364 111.94 127.723 112.754 127.137ZM113.691 128.434C113.241 128.758 112.895 129.126 112.652 129.537C112.407 129.963 112.29 130.402 112.301 130.854C112.318 131.315 112.486 131.766 112.805 132.207C113.124 132.648 113.499 132.949 113.932 133.111C114.371 133.281 114.827 133.32 115.301 133.229C115.774 133.138 116.241 132.927 116.699 132.597C117.15 132.273 117.497 131.898 117.742 131.472C117.987 131.046 118.105 130.6 118.097 130.133C118.08 129.672 117.909 129.217 117.584 128.767C117.265 128.326 116.889 128.025 116.457 127.863C116.03 127.71 115.576 127.682 115.094 127.78C114.618 127.886 114.15 128.104 113.691 128.434Z" fill="#F1EFE3"/>
<path d="M107.419 143.574L106.635 141.927L108.818 140.892L109.602 142.538L107.419 143.574ZM107.958 139.458L106.078 140.349L102.66 133.169L104.539 132.278L107.958 139.458Z" fill="#F1EFE3"/>
<path d="M90.4066 142.526L85.138 143.42L84.8746 141.874L90.1433 140.98L90.4066 142.526Z" fill="#F1EFE3"/>
</svg>
