<svg width="104" height="400" viewBox="0 0 104 400" fill="none" xmlns="http://www.w3.org/2000/svg">
<path fill-rule="evenodd" clip-rule="evenodd" d="M88.7696 384.459C98.5214 374.508 104 361.011 104 346.939L104 200H0L0 346.939C0 361.011 5.47856 374.508 15.2305 384.459C24.9823 394.41 38.2087 400 52 400C65.7913 400 79.0177 394.41 88.7696 384.459Z" fill="url(#paint0_linear_1346_1493)"/>
<path fill-rule="evenodd" clip-rule="evenodd" d="M15.2304 15.5412C5.47855 25.4922 0 38.9885 0 53.0612H52L104 53.0612C104 38.9885 98.5214 25.4921 88.7695 15.5412C79.0177 5.59033 65.7913 -3.2931e-05 52 -3.2931e-05C38.2087 -3.2931e-05 24.9823 5.59033 15.2304 15.5412ZM104 200V53.0612H0V200H104Z" fill="url(#paint1_linear_1346_1493)"/>
<defs>
<linearGradient id="paint0_linear_1346_1493" x1="38.5414" y1="396.593" x2="122.849" y2="232.98" gradientUnits="userSpaceOnUse">
<stop offset="0.223958" stop-color="#988BE3"/>
<stop offset="0.802083" stop-color="#EE5622"/>
</linearGradient>
<linearGradient id="paint1_linear_1346_1493" x1="65.4586" y1="3.40738" x2="-18.8489" y2="167.02" gradientUnits="userSpaceOnUse">
<stop offset="0.223958" stop-color="#988BE3"/>
<stop offset="0.802083" stop-color="#EE5622"/>
</linearGradient>
</defs>
</svg>
