<svg width="56" height="57" viewBox="0 0 56 57" fill="none" xmlns="http://www.w3.org/2000/svg">
<path fill-rule="evenodd" clip-rule="evenodd" d="M28 56.979C43.464 56.979 56 44.443 56 28.979C56 13.515 43.464 0.979004 28 0.979004C12.536 0.979004 0 13.515 0 28.979C0 44.443 12.536 56.979 28 56.979ZM35.9814 20.0398L11.7464 28.254L11.6113 29.6109L21.572 35.4084L27.3624 45.3594L28.7159 45.2256L36.9311 20.9895L35.9814 20.0398ZM21.9767 33.8038L13.7843 29.1445L35.0271 21.9448L27.8286 43.1866L23.0225 34.8515L30.4962 27.3948L29.4374 26.3361C29.4374 26.3361 23.7439 32.0342 21.9767 33.8038Z" fill="black"/>
</svg>
